<?xml version="1.0" encoding="utf-8"?>
<!-- Generator: Adobe Illustrator 18.1.1, SVG Export Plug-In . SVG Version: 6.00 Build 0)  -->
<svg version="1.1" xmlns="http://www.w3.org/2000/svg" xmlns:xlink="http://www.w3.org/1999/xlink" x="0px" y="0px"
	 viewBox="0 0 612 792" enable-background="new 0 0 612 792" xml:space="preserve">
<g id="Layer_2">
</g>
<g id="Layer_1">
	<path fill="#FFDCB2" d="M495.2,283.1l-186-107.4c-2-1.1-4.4-1.1-6.4,0l-186,107.4c-2,1.1-3.2,3.3-3.2,5.5v214.8
		c0,2.3,1.2,4.4,3.2,5.5l186,107.4c1,0.6,2.1,0.9,3.2,0.9c1.1,0,2.2-0.3,3.2-0.9l186-107.4c2-1.1,3.2-3.3,3.2-5.5V288.7
		C498.4,286.4,497.2,284.3,495.2,283.1z"/>
	<g>
		<path fill="#010101" d="M495.2,283.1l-186-107.4c-2-1.1-4.4-1.1-6.4,0l-186,107.4c-2,1.1-3.2,3.3-3.2,5.5v214.8
			c0,2.3,1.2,4.4,3.2,5.5l186,107.4c1,0.6,2.1,0.9,3.2,0.9c1.1,0,2.2-0.3,3.2-0.9l186-107.4c2-1.1,3.2-3.3,3.2-5.5V288.7
			C498.4,286.4,497.2,284.3,495.2,283.1z M235.1,505.9h-98.2l-3.8-2.2h102V505.9z M144.3,510.1h78.8l-49,17.2L144.3,510.1z
			 M306,603.5l-127.1-73.4l57.4-20.1c0,0,0.1,0,0.1-0.1c0.3,0.1,0.5,0.2,0.8,0.2h21.5c1.1,0,2-0.8,2.1-1.9h44.6
			c0.2,0,0.5-0.1,0.7-0.2c0.2,0.1,0.4,0.2,0.7,0.2h44.6c0.1,1,1,1.9,2.1,1.9h21.5c0.3,0,0.6-0.1,0.8-0.2c0,0,0.1,0,0.1,0.1
			l57.3,20.1L306,603.5z M239.4,505.9V462h17.2v43.8H239.4z M355.5,505.9V462h17.2v43.8H355.5z M438,527.3l-49-17.2h78.7L438,527.3z
			 M475.1,505.9H377v-2.2h101.8L475.1,505.9z M485.6,499.8l-1.7,1v-27.3c0-1-0.8-1.8-1.8-1.8c-1,0-1.8,0.8-1.8,1.8v28.8H377v-0.3h28
			c0.7,0,1.3-0.6,1.3-1.3v-27.2c0-0.7-0.6-1.3-1.3-1.3h-28v-2.1h28c1,0,1.8-0.8,1.8-1.8c0-1-0.8-1.8-1.8-1.8h-28v-6.5
			c0-1.2-1-2.1-2.1-2.1h-21.5c-1.2,0-2.1,1-2.1,2.1v45.8h-44.5c-0.2,0-0.5,0.1-0.7,0.2c-0.2-0.1-0.4-0.2-0.7-0.2h-44.5v-45.8
			c0-1.2-1-2.1-2.1-2.1h-21.5c-1.2,0-2.1,1-2.1,2.1v6.5h-28c-1,0-1.8,0.8-1.8,1.8c0,1,0.8,1.8,1.8,1.8h28v2.1h-28
			c-0.7,0-1.3,0.6-1.3,1.3v27.2c0,0.7,0.6,1.3,1.3,1.3h28v0.3H131.9v-28.8c0-1-0.8-1.8-1.8-1.8c-1,0-1.8,0.8-1.8,1.8v27.4l-1.9-1.1
			V292.4L306,188.7l179.6,103.7V499.8z M377.8,499.4v-24.6h25.9v24.6H377.8z M234.3,474.8v24.6h-25.9v-24.6H234.3z"/>
		<path fill="#010101" d="M130.1,464.2c-1,0-1.8,0.8-1.8,1.8v3.3c0,1,0.8,1.8,1.8,1.8c1,0,1.8-0.8,1.8-1.8V466
			C131.9,465,131.1,464.2,130.1,464.2z"/>
		<path fill="#010101" d="M164.7,466.4h-28.5c-1,0-1.8,0.8-1.8,1.8c0,1,0.8,1.8,1.8,1.8h28.5c1,0,1.8-0.8,1.8-1.8
			C166.6,467.2,165.8,466.4,164.7,466.4z"/>
		<path fill="#010101" d="M164.7,472.2h-28.5c-0.7,0-1.3,0.6-1.3,1.3v27.2c0,0.7,0.6,1.3,1.3,1.3h28.5c0.7,0,1.3-0.6,1.3-1.3v-27.2
			C166,472.8,165.4,472.2,164.7,472.2z M163.5,499.4h-25.9v-24.6h25.9V499.4z"/>
		<path fill="#010101" d="M139.6,497.9h21.9c0.2,0,0.4-0.2,0.4-0.4v-20.8c0-0.2-0.2-0.4-0.4-0.4h-21.9c-0.2,0-0.4,0.2-0.4,0.4v20.8
			C139.1,497.7,139.3,497.9,139.6,497.9z M140,477.1h21v20h-21V477.1z"/>
		<path fill="#010101" d="M155.8,488.8c-0.9-0.9-2.7-1.5-3.9-1.8c1.2-0.5,3-1.4,3.8-2.2c1.3-1.3,2.4-4.6,2.4-4.8
			c0-0.1,0-0.3-0.1-0.4c-0.1-0.1-0.3-0.2-0.4-0.1c-0.2,0-4,1-5.4,2.3c-0.8,0.8-1.4,2.4-1.8,3.7c-0.4-1.3-1.1-3-1.9-3.8
			c-1.3-1.3-5.1-2.1-5.2-2.2c-0.2,0-0.3,0-0.4,0.1c-0.1,0.1-0.1,0.3-0.1,0.4c0.1,0.2,1.4,3.7,2.7,5.1c0.8,0.8,2.4,1.5,3.5,1.9
			c-1.3,0.4-3.2,1.1-4.1,2c-1.3,1.3-2.1,5.1-2.2,5.2c0,0.2,0,0.3,0.1,0.4c0.1,0.1,0.2,0.1,0.3,0.1c0,0,0.1,0,0.1,0
			c0.2-0.1,3.7-1.4,5.1-2.7c0.9-0.9,1.6-2.6,2-3.7c0.5,1.2,1.4,3.1,2.3,4c1.3,1.3,4.6,2.4,4.8,2.4c0,0,0.1,0,0.1,0c0,0,0,0,0,0
			c0.2,0,0.4-0.2,0.4-0.4c0-0.1,0-0.2-0.1-0.2C157.9,493.4,157,490.1,155.8,488.8z M152.8,482.4c0.8-0.8,2.9-1.5,4.2-1.9
			c-0.4,1-1.1,2.8-1.9,3.7c-0.9,0.9-2.9,1.8-4,2.2C151.4,485.1,152.1,483.2,152.8,482.4z M144,480.5c1.3,0.3,3.2,1,4,1.7
			c0.8,0.8,1.5,2.9,1.9,4.2c-1-0.4-2.8-1.1-3.7-1.9C145.4,483.6,144.4,481.6,144,480.5z M147.9,491.4c-0.9,0.9-2.9,1.8-4,2.2
			c0.3-1.3,1-3.2,1.7-4c0.8-0.8,2.9-1.5,4.2-1.9C149.5,488.7,148.7,490.5,147.9,491.4z M153.4,491.7c-0.9-0.9-1.8-2.9-2.2-4
			c1.3,0.3,3.2,1,4,1.7c0.8,0.8,1.5,2.9,1.9,4.2C156.1,493.3,154.2,492.5,153.4,491.7z"/>
		<path fill="#010101" d="M200.2,466.4h-28.5c-1,0-1.8,0.8-1.8,1.8c0,1,0.8,1.8,1.8,1.8h28.5c1,0,1.8-0.8,1.8-1.8
			C202,467.2,201.2,466.4,200.2,466.4z"/>
		<path fill="#010101" d="M200.2,472.2h-28.5c-0.7,0-1.3,0.6-1.3,1.3v27.2c0,0.7,0.6,1.3,1.3,1.3h28.5c0.7,0,1.3-0.6,1.3-1.3v-27.2
			C201.4,472.8,200.9,472.2,200.2,472.2z M198.9,499.4h-25.9v-24.6h25.9V499.4z"/>
		<path fill="#010101" d="M175,497.9h21.9c0.2,0,0.4-0.2,0.4-0.4v-20.8c0-0.2-0.2-0.4-0.4-0.4H175c-0.2,0-0.4,0.2-0.4,0.4v20.8
			C174.6,497.7,174.7,497.9,175,497.9z M175.4,477.1h21v20h-21V477.1z"/>
		<path fill="#010101" d="M191.2,488.8c-0.9-0.9-2.7-1.5-3.9-1.8c1.2-0.5,3-1.4,3.8-2.2c1.3-1.3,2.4-4.6,2.4-4.8
			c0-0.1,0-0.3-0.1-0.4c-0.1-0.1-0.3-0.2-0.4-0.1c-0.2,0-4,1-5.4,2.3c-0.8,0.8-1.4,2.4-1.8,3.7c-0.4-1.3-1.1-3-1.9-3.8
			c-1.3-1.3-5.1-2.1-5.2-2.2c-0.2,0-0.3,0-0.4,0.1c-0.1,0.1-0.1,0.3-0.1,0.4c0.1,0.2,1.4,3.7,2.7,5.1c0.8,0.8,2.4,1.5,3.5,1.9
			c-1.3,0.4-3.2,1.1-4.1,2c-1.3,1.3-2.1,5.1-2.2,5.2c0,0.2,0,0.3,0.1,0.4c0.1,0.1,0.2,0.1,0.3,0.1c0,0,0.1,0,0.1,0
			c0.2-0.1,3.7-1.4,5.1-2.7c0.9-0.9,1.6-2.6,2-3.7c0.5,1.2,1.4,3.1,2.3,4c1.3,1.3,4.6,2.4,4.8,2.4c0,0,0.1,0,0.1,0c0,0,0,0,0,0
			c0.2,0,0.4-0.2,0.4-0.4c0-0.1,0-0.2-0.1-0.2C193.3,493.4,192.4,490.1,191.2,488.8z M188.3,482.4c0.8-0.8,2.9-1.5,4.2-1.9
			c-0.4,1-1.1,2.8-1.9,3.7c-0.9,0.9-2.9,1.8-4,2.2C186.8,485.1,187.5,483.2,188.3,482.4z M179.4,480.5c1.3,0.3,3.2,1,4,1.7
			c0.8,0.8,1.5,2.9,1.9,4.2c-1-0.4-2.8-1.1-3.7-1.9C180.8,483.6,179.9,481.6,179.4,480.5z M183.3,491.4c-0.9,0.9-2.9,1.8-4,2.2
			c0.3-1.3,1-3.2,1.7-4c0.8-0.8,2.9-1.5,4.2-1.9C184.9,488.7,184.1,490.5,183.3,491.4z M188.8,491.7c-0.9-0.9-1.8-2.9-2.2-4
			c1.3,0.3,3.2,1,4,1.7c0.8,0.8,1.5,2.9,1.9,4.2C191.5,493.3,189.7,492.5,188.8,491.7z"/>
		<path fill="#010101" d="M210.4,497.9h21.9c0.2,0,0.4-0.2,0.4-0.4v-20.8c0-0.2-0.2-0.4-0.4-0.4h-21.9c-0.2,0-0.4,0.2-0.4,0.4v20.8
			C210,497.7,210.2,497.9,210.4,497.9z M210.8,477.1h21v20h-21V477.1z"/>
		<path fill="#010101" d="M226.6,488.8c-0.9-0.9-2.7-1.5-3.9-1.8c1.2-0.5,3-1.4,3.8-2.2c1.3-1.3,2.4-4.6,2.4-4.8
			c0-0.1,0-0.3-0.1-0.4c-0.1-0.1-0.3-0.2-0.4-0.1c-0.2,0-4,1-5.4,2.3c-0.8,0.8-1.4,2.4-1.8,3.7c-0.4-1.3-1.1-3-1.9-3.8
			c-1.3-1.3-5.1-2.1-5.2-2.2c-0.2,0-0.3,0-0.4,0.1c-0.1,0.1-0.1,0.3-0.1,0.4c0.1,0.2,1.4,3.7,2.7,5.1c0.8,0.8,2.4,1.5,3.5,1.9
			c-1.3,0.4-3.2,1.1-4.1,2c-1.3,1.3-2.1,5.1-2.2,5.2c0,0.2,0,0.3,0.1,0.4c0.1,0.1,0.2,0.1,0.3,0.1c0,0,0.1,0,0.1,0
			c0.2-0.1,3.7-1.4,5.1-2.7c0.9-0.9,1.6-2.6,2-3.7c0.5,1.2,1.4,3.1,2.3,4c1.3,1.3,4.6,2.4,4.8,2.4c0,0,0.1,0,0.1,0c0,0,0,0,0,0
			c0.2,0,0.4-0.2,0.4-0.4c0-0.1,0-0.2-0.1-0.2C228.7,493.4,227.9,490.1,226.6,488.8z M223.7,482.4c0.8-0.8,2.9-1.5,4.2-1.9
			c-0.4,1-1.1,2.8-1.9,3.7c-0.9,0.9-2.9,1.8-4,2.2C222.3,485.1,222.9,483.2,223.7,482.4z M214.8,480.5c1.3,0.3,3.2,1,4,1.7
			c0.8,0.8,1.5,2.9,1.9,4.2c-1-0.4-2.8-1.1-3.7-1.9C216.2,483.6,215.3,481.6,214.8,480.5z M218.7,491.4c-0.9,0.9-2.9,1.8-4,2.2
			c0.3-1.3,1-3.2,1.7-4c0.8-0.8,2.9-1.5,4.2-1.9C220.3,488.7,219.6,490.5,218.7,491.4z M224.3,491.7c-0.9-0.9-1.8-2.9-2.2-4
			c1.3,0.3,3.2,1,4,1.7c0.8,0.8,1.5,2.9,1.9,4.2C226.9,493.3,225.1,492.5,224.3,491.7z"/>
		<path fill="#010101" d="M258.7,454.6h-21.5c-0.7,0-1.3,0.6-1.3,1.3s0.6,1.3,1.3,1.3h21.5c0.7,0,1.3-0.6,1.3-1.3
			S259.4,454.6,258.7,454.6z"/>
		<path fill="#010101" d="M232.4,373.9c-0.6,3.1-0.2,5.6,1.2,7.5c2.1,2.9,5.9,3.5,8.7,3.5c1.4,0,2.3-0.1,2.3-0.2
			c0.6-0.1,1.1-0.6,1.1-1.2V363c0-0.7-0.6-1.2-1.2-1.2h-23.1c-0.3,0-0.6,0.1-0.9,0.4c-0.2,0.2-0.4,0.6-0.4,0.9
			c0,3.9,1.9,11.4,9,11.4C230.1,374.4,231.2,374.2,232.4,373.9z M222.7,364.2h20.5v18.1c-0.3,0-0.6,0-0.9,0c-1.8,0-5.1-0.3-6.7-2.5
			c-1.2-1.6-1.3-4.2-0.2-7.6c0.1-0.5,0-1-0.3-1.3c-0.2-0.2-0.5-0.3-0.8-0.3c-0.2,0-0.3,0-0.5,0.1c-1.7,0.7-3.3,1.1-4.6,1.1
			C224.1,371.9,222.9,366.7,222.7,364.2z"/>
		<path fill="#010101" d="M239.4,378c0,0.5,0.4,1,1,1c0.5,0,1-0.4,1-1v-11c0-0.5-0.4-1-1-1h-11.9c-0.5,0-1,0.4-1,1c0,0.5,0.4,1,1,1
			h10.9V378z"/>
		<circle fill="#010101" cx="219.4" cy="540.1" r="2.6"/>
		<path fill="#010101" d="M306.1,283.7C306.1,283.7,306.1,283.8,306.1,283.7c1.8,0,3.2-1.4,3.2-3.1c0-1.7-1.4-3.1-3.1-3.1
			c0,0,0,0,0,0c0,0,0,0,0,0c-1.7,0-3.1,1.4-3.1,3.1C302.9,282.4,304.3,283.8,306.1,283.7C306,283.8,306.1,283.7,306.1,283.7z"/>
		<path fill="#010101" d="M482.1,471.2c1,0,1.8-0.8,1.8-1.8V466c0-1-0.8-1.8-1.8-1.8c-1,0-1.8,0.8-1.8,1.8v3.3
			C480.2,470.4,481,471.2,482.1,471.2z"/>
		<path fill="#010101" d="M447.4,470.1h28.5c1,0,1.8-0.8,1.8-1.8c0-1-0.8-1.8-1.8-1.8h-28.5c-1,0-1.8,0.8-1.8,1.8
			C445.5,469.3,446.4,470.1,447.4,470.1z"/>
		<path fill="#010101" d="M475.9,472.2h-28.5c-0.7,0-1.3,0.6-1.3,1.3v27.2c0,0.7,0.6,1.3,1.3,1.3h28.5c0.7,0,1.3-0.6,1.3-1.3v-27.2
			C477.2,472.8,476.6,472.2,475.9,472.2z M474.6,499.4h-25.9v-24.6h25.9V499.4z"/>
		<path fill="#010101" d="M450.7,497.9h21.9c0.2,0,0.4-0.2,0.4-0.4v-20.8c0-0.2-0.2-0.4-0.4-0.4h-21.9c-0.2,0-0.4,0.2-0.4,0.4v20.8
			C450.3,497.7,450.5,497.9,450.7,497.9z M451.1,477.1h21v20h-21V477.1z"/>
		<path fill="#010101" d="M469.2,480c0.1-0.1,0-0.3-0.1-0.4c-0.1-0.1-0.3-0.2-0.4-0.1c-0.2,0-3.9,0.8-5.2,2.2
			c-0.8,0.8-1.5,2.6-1.9,3.8c-0.4-1.2-1-2.9-1.8-3.7c-1.3-1.3-5.2-2.3-5.4-2.3c-0.2,0-0.3,0-0.4,0.1c-0.1,0.1-0.1,0.3-0.1,0.4
			c0,0.1,1.1,3.4,2.4,4.8c0.9,0.9,2.6,1.7,3.8,2.2c-1.2,0.3-3.1,1-3.9,1.8c-1.3,1.3-2.3,5.2-2.3,5.4c0,0.1,0,0.3,0.1,0.4
			c0.1,0.1,0.2,0.1,0.3,0.1c0,0,0.1,0,0.1,0c0.1,0,3.4-1.1,4.8-2.4c0.9-0.9,1.8-2.8,2.3-4c0.4,1.1,1.2,2.8,2,3.7
			c1.3,1.3,4.9,2.7,5.1,2.7c0,0,0.1,0,0.1,0c0.1,0,0.2,0,0.3-0.1c0.1-0.1,0.2-0.3,0.1-0.4c0-0.2-0.8-3.9-2.2-5.2
			c-0.9-0.9-2.8-1.6-4.1-2c1.1-0.4,2.7-1.1,3.5-1.9C467.8,483.8,469.2,480.2,469.2,480z M455.1,480.5c1.3,0.4,3.4,1.1,4.2,1.9
			c0.8,0.8,1.4,2.7,1.7,4c-1.1-0.5-3.2-1.4-4-2.2C456.2,483.3,455.5,481.5,455.1,480.5z M458.7,491.7c-0.8,0.8-2.6,1.6-3.7,1.9
			c0.4-1.3,1.1-3.4,1.9-4.2c0.8-0.8,2.7-1.4,4-1.7C460.5,488.8,459.6,490.8,458.7,491.7z M468.2,493.6c-1.1-0.5-3.2-1.4-4-2.2
			c-0.8-0.8-1.6-2.6-1.9-3.7c1.3,0.4,3.4,1.1,4.2,1.9C467.3,490.4,467.9,492.3,468.2,493.6z M462.3,486.4c0.4-1.3,1.1-3.4,1.9-4.2
			c0.8-0.8,2.7-1.4,4-1.7c-0.5,1.1-1.4,3.2-2.2,4C465.1,485.3,463.3,486.1,462.3,486.4z"/>
		<path fill="#010101" d="M412,470.1h28.5c1,0,1.8-0.8,1.8-1.8c0-1-0.8-1.8-1.8-1.8H412c-1,0-1.8,0.8-1.8,1.8
			C410.1,469.3,411,470.1,412,470.1z"/>
		<path fill="#010101" d="M440.5,472.2H412c-0.7,0-1.3,0.6-1.3,1.3v27.2c0,0.7,0.6,1.3,1.3,1.3h28.5c0.7,0,1.3-0.6,1.3-1.3v-27.2
			C441.7,472.8,441.2,472.2,440.5,472.2z M439.2,499.4h-25.9v-24.6h25.9V499.4z"/>
		<path fill="#010101" d="M415.3,497.9h21.9c0.2,0,0.4-0.2,0.4-0.4v-20.8c0-0.2-0.2-0.4-0.4-0.4h-21.9c-0.2,0-0.4,0.2-0.4,0.4v20.8
			C414.9,497.7,415.1,497.9,415.3,497.9z M415.7,477.1h21v20h-21V477.1z"/>
		<path fill="#010101" d="M433.8,480c0.1-0.1,0-0.3-0.1-0.4c-0.1-0.1-0.3-0.2-0.4-0.1c-0.2,0-3.9,0.8-5.2,2.2
			c-0.8,0.8-1.5,2.6-1.9,3.8c-0.4-1.2-1-2.9-1.8-3.7c-1.3-1.3-5.2-2.3-5.4-2.3c-0.2,0-0.3,0-0.4,0.1c-0.1,0.1-0.1,0.3-0.1,0.4
			c0,0.1,1.1,3.4,2.4,4.8c0.9,0.9,2.6,1.7,3.8,2.2c-1.2,0.3-3.1,1-3.9,1.8c-1.3,1.3-2.3,5.2-2.3,5.4c0,0.1,0,0.3,0.1,0.4
			c0.1,0.1,0.2,0.1,0.3,0.1c0,0,0.1,0,0.1,0c0.1,0,3.4-1.1,4.8-2.4c0.9-0.9,1.8-2.8,2.3-4c0.4,1.1,1.2,2.8,2,3.7
			c1.3,1.3,4.9,2.7,5.1,2.7c0,0,0.1,0,0.1,0c0.1,0,0.2,0,0.3-0.1c0.1-0.1,0.2-0.3,0.1-0.4c0-0.2-0.8-3.9-2.2-5.2
			c-0.9-0.9-2.8-1.6-4.1-2c1.1-0.4,2.7-1.1,3.5-1.9C432.4,483.8,433.8,480.2,433.8,480z M419.7,480.5c1.3,0.4,3.4,1.1,4.2,1.9
			c0.8,0.8,1.4,2.7,1.7,4c-1.1-0.5-3.2-1.4-4-2.2C420.8,483.3,420,481.5,419.7,480.5z M423.3,491.7c-0.8,0.8-2.6,1.6-3.7,1.9
			c0.4-1.3,1.1-3.4,1.9-4.2c0.8-0.8,2.7-1.4,4-1.7C425.1,488.8,424.2,490.8,423.3,491.7z M432.8,493.6c-1.1-0.5-3.2-1.4-4-2.2
			c-0.8-0.8-1.6-2.6-1.9-3.7c1.3,0.4,3.4,1.1,4.2,1.9C431.9,490.4,432.5,492.3,432.8,493.6z M426.8,486.4c0.4-1.3,1.1-3.4,1.9-4.2
			c0.8-0.8,2.7-1.4,4-1.7c-0.5,1.1-1.4,3.2-2.2,4C429.7,485.3,427.9,486.1,426.8,486.4z"/>
		<path fill="#010101" d="M401.7,476.2h-21.9c-0.2,0-0.4,0.2-0.4,0.4v20.8c0,0.2,0.2,0.4,0.4,0.4h21.9c0.2,0,0.4-0.2,0.4-0.4v-20.8
			C402.2,476.4,402,476.2,401.7,476.2z M401.3,497.1h-21v-20h21V497.1z"/>
		<path fill="#010101" d="M385.6,484.8c0.9,0.9,2.6,1.7,3.8,2.2c-1.2,0.3-3.1,1-3.9,1.8c-1.3,1.3-2.3,5.2-2.3,5.4
			c0,0.1,0,0.3,0.1,0.4c0.1,0.1,0.2,0.1,0.3,0.1c0,0,0.1,0,0.1,0c0.1,0,3.4-1.1,4.8-2.4c0.9-0.9,1.8-2.8,2.3-4
			c0.4,1.1,1.2,2.8,2,3.7c1.3,1.3,4.9,2.7,5.1,2.7c0,0,0.1,0,0.1,0c0.1,0,0.2,0,0.3-0.1c0.1-0.1,0.2-0.3,0.1-0.4
			c0-0.2-0.8-3.9-2.2-5.2c-0.9-0.9-2.8-1.6-4.1-2c1.1-0.4,2.7-1.1,3.5-1.9c1.3-1.3,2.7-4.9,2.7-5.1c0.1-0.1,0-0.3-0.1-0.4
			c-0.1-0.1-0.3-0.2-0.4-0.1c-0.2,0-3.9,0.8-5.2,2.2c-0.8,0.8-1.5,2.6-1.9,3.8c-0.4-1.2-1-2.9-1.8-3.7c-1.3-1.3-5.2-2.3-5.4-2.3
			c-0.2,0-0.3,0-0.4,0.1c-0.1,0.1-0.1,0.3-0.1,0.4C383.2,480.1,384.3,483.4,385.6,484.8z M387.9,491.7c-0.8,0.8-2.6,1.6-3.7,1.9
			c0.4-1.3,1.1-3.4,1.9-4.2c0.8-0.8,2.7-1.4,4-1.7C389.7,488.8,388.7,490.8,387.9,491.7z M397.4,493.6c-1.1-0.5-3.2-1.4-4-2.2
			c-0.8-0.8-1.6-2.6-1.9-3.7c1.3,0.4,3.4,1.1,4.2,1.9C396.5,490.4,397.1,492.3,397.4,493.6z M393.3,482.2c0.8-0.8,2.7-1.4,4-1.7
			c-0.5,1.1-1.4,3.2-2.2,4c-0.8,0.8-2.6,1.6-3.7,1.9C391.8,485.1,392.5,483,393.3,482.2z M388.5,482.4c0.8,0.8,1.4,2.7,1.7,4
			c-1.1-0.5-3.2-1.4-4-2.2c-0.8-0.8-1.6-2.6-1.9-3.7C385.6,480.9,387.7,481.6,388.5,482.4z"/>
		<path fill="#010101" d="M374.9,454.6h-21.5c-0.7,0-1.3,0.6-1.3,1.3s0.6,1.3,1.3,1.3h21.5c0.7,0,1.3-0.6,1.3-1.3
			S375.6,454.6,374.9,454.6z"/>
		<path fill="#010101" d="M390.8,361.8h-23.1c-0.7,0-1.2,0.6-1.2,1.2v20.5c0,0.6,0.4,1.1,1.1,1.2c0,0,1,0.2,2.3,0.2
			c2.8,0,6.6-0.6,8.7-3.5c1.4-1.9,1.8-4.4,1.2-7.5c1.2,0.3,2.3,0.5,3.3,0.5l0,0c7,0,9-7.5,9-11.4c0-0.3-0.1-0.6-0.4-0.9
			C391.5,361.9,391.1,361.8,390.8,361.8z M383.1,371.9c-1.3,0-2.9-0.4-4.6-1.1c-0.4-0.2-1-0.1-1.3,0.2s-0.5,0.8-0.3,1.3
			c1.1,3.4,1,5.9-0.2,7.6c-1.6,2.1-4.9,2.5-6.7,2.5c-0.3,0-0.6,0-0.9,0v-18.1h20.5C389.2,366.7,388,371.9,383.1,371.9z"/>
		<path fill="#010101" d="M371.7,379c0.5,0,1-0.4,1-1v-10h10.9c0.5,0,1-0.4,1-1c0-0.5-0.4-1-1-1h-11.9c-0.5,0-1,0.4-1,1v11
			C370.7,378.5,371.2,379,371.7,379z"/>
		<path fill="#010101" d="M391.9,348.3c-10.2,0.5-17.1-8.4-17.2-8.5c-0.2-0.3-0.6-0.5-1-0.5h-52.6l0,0h-14.4c-0.2,0-0.5,0.1-0.7,0.2
			c-0.2-0.1-0.4-0.2-0.7-0.2H291c0,0,0,0,0,0h-52.6c-0.4,0-0.8,0.2-1,0.5c-0.1,0.1-7,9-17.2,8.5c-9.1-0.4-9.8-14.2-9.8-14.3
			c0-0.7-0.6-1.2-1.3-1.2c-0.7,0-1.2,0.6-1.2,1.2v19.1c0,4.3,3.5,7.9,7.9,7.9h32c-0.3,0.1-0.6,0.3-0.9,0.5c-0.4,0.4-0.6,1-0.6,1.5
			l1.9,63.3c0,1.1,1,2.1,2.1,2.1H267c0,0,0,0,0,0c1.2,0,2.1-1,2.1-2.1c0-0.1,0-0.2,0-0.3l-1-63c0-0.9-0.6-1.7-1.5-2h16.8
			c0,0,0,0,0,0c0,0,0,0,0,0h20.7v3.5c0,0.1,0,0.1,0,0.2c-7.7,0.5-14.5,4.1-19.3,9.5l-11.8-11.8c-0.4-0.4-1-0.4-1.4,0
			c-0.4,0.4-0.4,1,0,1.4l12,12c-3.4,4.5-5.5,10-5.7,16h-7.6c-0.5,0-1,0.4-1,1c0,0.5,0.4,1,1,1h7.6c0.2,6.9,3,13.2,7.3,17.9
			l-13.8,13.8c-0.5,0.5-0.5,1.3,0,1.8c0.2,0.2,0.6,0.4,0.9,0.4c0.3,0,0.6-0.1,0.9-0.4l13.8-13.8c4.6,4.2,10.5,6.9,17.1,7.3v8.8
			h-75.6c-0.7,0-1.2,0.6-1.2,1.2v21.8c0,0.7,0.6,1.2,1.2,1.2h76.9c0.2,0,0.5-0.1,0.7-0.2c0.2,0.1,0.4,0.2,0.7,0.2h76.9
			c0.7,0,1.2-0.6,1.2-1.2v-21.8c0-0.7-0.6-1.2-1.2-1.2H308v-8.8c6.6-0.5,12.5-3.2,17-7.4l13.8,13.8c0.2,0.2,0.6,0.4,0.9,0.4
			c0.3,0,0.6-0.1,0.9-0.4c0.5-0.5,0.5-1.3,0-1.8l-13.8-13.8c4.3-4.8,7-11,7.3-17.9h7.7c0.5,0,1-0.4,1-1c0-0.5-0.4-1-1-1H334
			c-0.2-6-2.3-11.5-5.7-15.9c0,0,0,0,0.1,0l12-12c0.4-0.4,0.4-1,0-1.4c-0.4-0.4-1-0.4-1.4,0l-11.9,11.9c-4.8-5.4-11.6-9-19.2-9.5
			c0-0.1,0-0.1,0-0.2V361h20.7l0,0c0,0,0,0,0,0h16.8c-0.8,0.3-1.4,1-1.5,2l-1,63.3c0,0.6,0.2,1.1,0.6,1.5c0.4,0.4,0.9,0.6,1.5,0.6
			h16.6c1.2,0,2.1-0.9,2.1-2.1l1.9-63.3c0-0.6-0.2-1.1-0.6-1.5c-0.2-0.2-0.5-0.4-0.9-0.5h32c4.3,0,7.9-3.5,7.9-7.9V334
			c0-0.7-0.5-1.2-1.2-1.2c-0.7,0-1.2,0.5-1.3,1.2C401.7,334.1,401,347.8,391.9,348.3z M372.9,358.5l-19.8-16.8h10.6l26.4,16.8H372.9
			z M329.5,358.5l-6.6-16.8h11.9l13.2,16.8H329.5z M320.2,341.7l6.6,16.8H308v-16.8H320.2z M351.2,358.5L338,341.7h11.3l19.8,16.8
			H351.2z M264.1,358.5l13.2-16.8h11.9l-6.6,16.8H264.1z M222,358.5l26.4-16.8H259l-19.8,16.8H222z M262.8,341.7h11.3L261,358.5H243
			L262.8,341.7z M210.4,353.1v-9.3c1.9,3.7,4.9,6.7,9.7,7c10.2,0.5,17.2-7,18.9-9h4.7l-26.4,16.8h-1.6
			C212.8,358.5,210.4,356.1,210.4,353.1z M252.5,424.1l-1.8-59h13.2l0.9,59H252.5z M285.3,358.5l6.6-16.8h12.3v16.8H285.3z
			 M382.4,431.9v19.3h-75.6c-0.2,0-0.5,0.1-0.7,0.2c-0.2-0.1-0.4-0.2-0.7-0.2h-75.6v-19.3h75.6c0.2,0,0.5-0.1,0.7-0.2
			c0.2,0.1,0.4,0.2,0.7,0.2H382.4z M330.4,392.7c0,13.4-10.9,24.4-24.4,24.4c-13.4,0-24.4-10.9-24.4-24.4
			c0-13.4,10.9-24.4,24.4-24.4C319.4,368.3,330.4,379.2,330.4,392.7z M359.7,424.1h-12.3l0.9-59h13.2L359.7,424.1z M401.7,343.8v9.3
			c0,3-2.4,5.4-5.4,5.4h-1.6l-26.4-16.8h4.7c1.7,2,8.7,9.5,18.9,9C396.8,350.5,399.9,347.4,401.7,343.8z"/>
		<path fill="#010101" d="M369.6,312.9c0-11.3,0.2-25.3,0.3-32.6c0.1-3.3-0.7-4.2-1.8-5.2c-0.1-0.1-0.3-0.2-0.4-0.4
			c-1.6-1.6-5.5-1.4-6.2-1.4h-9.8c-0.6,0-1.1,0.4-1.2,1c-0.1,0.6,0.2,1.2,0.7,1.4l9.6,4.1c0.4,0.9,1.4,3.5,0.3,5.2
			c-1.1,1.9-4.3,2.3-6.7,2.3h-40.2l-0.6-2.6l4.5-4.5c0.3-0.3,0.4-0.7,0.4-1.1c-0.1-0.4-0.3-0.7-0.6-0.9l-6.7-3.6l-3.9-6.4
			c-0.2-0.4-0.6-0.5-1-0.6c-0.1,0-0.1,0-0.2,0c-0.1,0-0.1,0-0.1,0c-0.4,0-0.8,0.2-1,0.6l-3.9,6.4l-6.7,3.6c-0.3,0.2-0.6,0.5-0.6,0.9
			c-0.1,0.4,0.1,0.8,0.4,1.1l4.5,4.5l-0.6,2.6h-40.2c-2.4,0-5.6-0.4-6.7-2.3c-1.1-1.8-0.1-4.3,0.3-5.2l9.6-4.1
			c0.5-0.2,0.8-0.8,0.7-1.4c-0.1-0.6-0.6-1-1.2-1l-9.7,0c-0.8-0.1-4.7-0.3-6.3,1.4c-0.1,0.1-0.3,0.3-0.4,0.4c-1.1,1-1.9,2-1.8,5.2
			c0.1,7.4,0.3,21.4,0.3,32.6c0,4-5.9,8.6-8.5,10.2c-1.6,0.1-8.7,0.3-13.7,0.3l-5.1-18.4c-0.2-0.6-0.7-1-1.4-0.9
			c-0.6,0.1-1.1,0.6-1.1,1.2v24c0,4.3,3.5,7.9,7.9,7.9h81h8.6h81c4.3,0,7.9-3.5,7.9-7.9v-24c0-0.6-0.5-1.1-1.1-1.2
			c-0.6-0.1-1.2,0.3-1.4,0.9l-5.1,18.4c-5,0-12.1-0.3-13.7-0.3C375.4,321.5,369.6,316.9,369.6,312.9z M392.7,325.9
			c0.6,0,1-0.4,1.2-0.9l2.9-10.4v14.8c0,3-2.4,5.4-5.4,5.4h-81h-8.6h-81c-3,0-5.4-2.4-5.4-5.4v-14.8l2.9,10.4
			c0.1,0.5,0.6,0.9,1.2,0.9c5.7,0,15-0.3,15.1-0.3c0.2,0,0.4-0.1,0.6-0.2c0.4-0.2,9.9-6.1,9.9-12.5c0-11.2-0.2-25.3-0.3-32.7
			c0-2.4,0.4-2.8,1-3.4c0.2-0.2,0.3-0.3,0.5-0.5c0.5-0.5,2.7-0.8,4.4-0.6h3.7l-4.4,1.9c-0.3,0.1-0.5,0.3-0.6,0.5
			c-0.1,0.2-2.5,4.6-0.5,8.1c1.4,2.3,4.4,3.5,8.9,3.5h41.2c0.6,0,1.1-0.4,1.2-1l1-4.3c0.1-0.4,0-0.9-0.3-1.2l-3.8-3.8l5.5-3
			c0.2-0.1,0.4-0.3,0.5-0.4l3.1-5.1l3.1,5.1c0.1,0.2,0.3,0.3,0.5,0.4l5.5,3l-3.8,3.8c-0.3,0.3-0.4,0.7-0.3,1.2l1,4.3
			c0.1,0.6,0.6,1,1.2,1h41.2c4.5,0,7.5-1.2,8.9-3.5c2-3.4-0.4-7.9-0.5-8.1c-0.1-0.2-0.3-0.4-0.6-0.5l-4.4-1.9l3.8,0
			c1.6-0.1,3.8,0.1,4.3,0.6c0.2,0.2,0.4,0.3,0.5,0.5c0.7,0.6,1.1,0.9,1,3.4c-0.1,7.3-0.3,21.4-0.3,32.7c0,6.4,9.5,12.3,9.9,12.5
			c0.2,0.1,0.4,0.2,0.6,0.2C377.7,325.6,387,325.9,392.7,325.9z"/>
		<path fill="#010101" d="M386.1,541.8l-71.7,41.6l29.7-38.4c0.7-0.9,0.5-2.3-0.4-3c-0.9-0.7-2.3-0.5-3,0.4l-32.4,42.1v-40.8
			c0-1.2-1-2.1-2.1-2.1c0,0,0,0-0.1,0c0,0,0,0-0.1,0c-1.2,0-2.1,1-2.1,2.1v40.8l-32.4-42.1c-0.7-0.9-2.1-1.1-3-0.4
			c-0.9,0.7-1.1,2.1-0.4,3l29.7,38.4L226,541.8c-1-0.6-2.3-0.2-2.9,0.8c-0.6,1-0.2,2.3,0.8,2.9l81.1,47c0,0,0.1,0,0.1,0
			c0.1,0.1,0.2,0.1,0.4,0.2c0,0,0.1,0,0.1,0c0.2,0,0.3,0.1,0.5,0.1c0,0,0,0,0,0l0,0h0c0,0,0,0,0.1,0c0,0,0,0,0.1,0l0,0l0,0
			c0,0,0,0,0,0c0.2,0,0.3,0,0.5-0.1c0,0,0.1,0,0.1,0c0.1,0,0.2-0.1,0.4-0.2c0,0,0.1,0,0.1,0l81.1-47c1-0.6,1.4-1.9,0.8-2.9
			C388.5,541.6,387.2,541.2,386.1,541.8z"/>
		<circle fill="#010101" cx="392.7" cy="540.1" r="2.6"/>
		<path fill="#010101" d="M306.1,199.6C306.1,199.6,306.1,199.6,306.1,199.6C306.1,199.6,306,199.6,306.1,199.6
			C306,199.6,306,199.6,306.1,199.6C306,199.6,306,199.6,306.1,199.6c-0.2,0-0.4,0-0.5,0c0,0-0.1,0-0.1,0c-0.1,0-0.2,0-0.2,0.1
			c-0.1,0-0.1,0-0.2,0.1c0,0-0.1,0-0.1,0.1l-81.1,47c-1,0.6-1.4,1.9-0.8,2.9c0.4,0.7,1.1,1.1,1.8,1.1c0.4,0,0.7-0.1,1.1-0.3
			l71.7-41.6l-29.7,38.4c-0.7,0.9-0.5,2.3,0.4,3c0.9,0.7,2.3,0.5,3-0.4l32.4-42.1v40.8c0,1.2,1,2.1,2.1,2.1c0,0,0,0,0.1,0
			c0,0,0,0,0.1,0c1.2,0,2.1-1,2.1-2.1V208l32.4,42.1c0.7,0.9,2.1,1.1,3,0.4c0.9-0.7,1.1-2.1,0.4-3L314.4,209l71.7,41.6
			c0.3,0.2,0.7,0.3,1.1,0.3c0.7,0,1.4-0.4,1.8-1.1c0.6-1,0.2-2.3-0.8-2.9l-81.1-47c0,0-0.1,0-0.1-0.1c-0.1,0-0.1,0-0.2-0.1
			c-0.1,0-0.2-0.1-0.3-0.1c0,0-0.1,0-0.1,0C306.4,199.6,306.3,199.6,306.1,199.6C306.1,199.6,306.1,199.6,306.1,199.6
			C306.1,199.6,306.1,199.6,306.1,199.6z"/>
		<path fill="#010101" d="M306.1,433.8c-0.2-0.1-0.4-0.2-0.7-0.2h-69.8c-0.7,0-1.2,0.5-1.2,1.2c0,0.1,0,0.3,0.1,0.4
			c-0.1,0.2-0.1,0.3-0.1,0.5v12.7c0,0.2,0,0.3,0.1,0.4c0,0.1,0,0.1,0,0.1c0,0.7,0.5,1.2,1.2,1.2h69.8c0.2,0,0.5-0.1,0.7-0.2
			c0.2,0.1,0.4,0.2,0.7,0.2h69.8c0.7,0,1.2-0.5,1.2-1.2c0-0.1,0-0.1,0-0.1c0.1-0.1,0.1-0.3,0.1-0.4v-12.7c0-0.2-0.1-0.4-0.1-0.5
			c0-0.1,0.1-0.2,0.1-0.4c0-0.7-0.5-1.2-1.2-1.2h-69.8C306.5,433.6,306.3,433.7,306.1,433.8z M375.3,447.7H370v-11.8h5.3V447.7z
			 M367.6,447.7h-5.3v-11.8h5.3V447.7z M359.8,447.7h-5.3v-11.8h5.3V447.7z M352,447.7h-5.3v-11.8h5.3V447.7z M344.3,447.7H339
			v-11.8h5.3V447.7z M336.5,447.7h-5.3v-11.8h5.3V447.7z M328.8,447.7h-5.3v-11.8h5.3V447.7z M321,447.7h-5.3v-11.8h5.3V447.7z
			 M313.2,447.7H308v-11.8h5.3V447.7z M236.8,435.9h5.3v11.8h-5.3V435.9z M244.6,435.9h5.3v11.8h-5.3V435.9z M252.3,435.9h5.3v11.8
			h-5.3V435.9z M260.1,435.9h5.3v11.8h-5.3V435.9z M267.9,435.9h5.3v11.8h-5.3V435.9z M275.6,435.9h5.3v11.8h-5.3V435.9z
			 M283.4,435.9h5.3v11.8h-5.3V435.9z M291.1,435.9h5.3v11.8h-5.3V435.9z M298.9,435.9h5.3v11.8h-5.3V435.9z"/>
		<path fill="#010101" d="M261.1,314.9c-0.7,0-1.1,0.4-1.1,1.1v5.4l-5-6c-0.2-0.3-0.5-0.4-0.9-0.4c-0.7,0-1.1,0.4-1.1,1.1v8.4
			c0,0.7,0.4,1,1.1,1c0.7,0,1.1-0.4,1.1-1v-5.4l5,6.1c0.2,0.2,0.5,0.4,0.8,0.4c0.7,0,1.1-0.4,1.1-1v-8.4
			C262.2,315.3,261.8,314.9,261.1,314.9z"/>
		<path fill="#010101" d="M269,314.8c-1.6,0-2.9,0.5-4,1.6c-1,1-1.5,2.3-1.5,3.8c0,1.5,0.5,2.7,1.5,3.8c1,1,2.4,1.6,4,1.6
			c1.6,0,2.9-0.5,4-1.6c1-1,1.5-2.3,1.5-3.8c0-1.5-0.5-2.7-1.5-3.8C272,315.3,270.6,314.8,269,314.8z M271.4,322.4
			c-0.6,0.7-1.4,1-2.4,1c-1,0-1.8-0.3-2.4-1c-0.6-0.6-0.8-1.4-0.8-2.3c0-0.9,0.3-1.7,0.8-2.3c0.6-0.7,1.4-1,2.4-1c1,0,1.8,0.3,2.4,1
			c0.6,0.6,0.8,1.4,0.8,2.3C272.3,321.1,272,321.8,271.4,322.4z"/>
		<path fill="#010101" d="M279.8,315H277c-0.7,0-1.1,0.4-1.1,1.1v8.1c0,0.7,0.4,1.1,1.1,1.1h2.8c1.6,0,2.9-0.5,3.9-1.5
			c1-1,1.5-2.2,1.5-3.7c0-1.5-0.5-2.7-1.5-3.7C282.7,315.5,281.4,315,279.8,315z M282.1,322.4c-0.6,0.6-1.3,0.9-2.4,0.9h-1.6V317
			h1.6c1,0,1.8,0.3,2.4,0.9c0.6,0.6,0.8,1.3,0.8,2.2C282.9,321.1,282.7,321.8,282.1,322.4z"/>
		<path fill="#010101" d="M293.4,323.2h-4.6v-2.2h2.3c0.7,0,1.1-0.4,1.1-1c0-0.6-0.4-1-1.1-1h-2.3V317h4.4c0.7,0,1.1-0.4,1.1-1
			c0-0.6-0.4-1-1.1-1h-5.5c-0.7,0-1.1,0.4-1.1,1.1v8.1c0,0.7,0.4,1.1,1.1,1.1h5.8c0.7,0,1.1-0.4,1.1-1
			C294.4,323.6,294,323.2,293.4,323.2z"/>
		<path fill="#010101" d="M302.6,320.2c-0.3-0.2-0.7-0.4-1.3-0.6c-0.4-0.2-1-0.3-1.6-0.5c-1.1-0.3-1.6-0.5-1.8-0.7
			c-0.3-0.2-0.4-0.4-0.4-0.6c0-0.2,0-0.9,2-0.9c0.4,0,0.8,0.1,1.3,0.2c0.4,0.1,0.7,0.3,1.1,0.5c0.1,0.1,0.3,0.1,0.5,0.1
			c0.6,0,1-0.4,1-1c0-0.3-0.2-0.7-0.6-0.9c-0.2-0.2-0.5-0.3-0.9-0.4c-0.8-0.3-1.6-0.4-2.4-0.4c-1.2,0-2.2,0.2-3,0.7
			c-0.8,0.5-1.3,1.3-1.3,2.3c0,0.8,0.3,1.5,0.9,2c0.6,0.5,1.5,0.9,2.9,1.3c0.5,0.1,0.9,0.3,1.2,0.3c0.3,0.1,0.6,0.2,0.8,0.3
			c0.4,0.2,0.5,0.5,0.5,0.7c0,0.3,0,1-2,1c-0.5,0-1-0.1-1.4-0.2c-0.3-0.1-0.7-0.3-1.2-0.6c-0.3-0.2-0.5-0.2-0.7-0.2
			c-0.6,0-1,0.4-1,1c0,0.4,0.2,0.7,0.6,1c1,0.8,2.3,1.1,3.8,1.1c1.3,0,2.3-0.3,3.1-0.9c0.8-0.6,1.1-1.3,1.1-2.2
			C303.7,321.5,303.3,320.7,302.6,320.2z"/>
		<path fill="#010101" d="M310,316.9c0.9,0,1.7,0.3,2.3,0.9c0.3,0.3,0.6,0.5,0.9,0.5c0.7,0,1-0.4,1-1c0-0.3-0.1-0.5-0.3-0.7
			c-0.9-1.1-2.3-1.7-4.1-1.7c-1.6,0-3,0.5-4,1.6c-1,1-1.5,2.3-1.5,3.7c0,1.5,0.5,2.7,1.5,3.7c1,1.1,2.4,1.6,4,1.6
			c1.8,0,3.1-0.6,4.1-1.7c0.2-0.2,0.3-0.5,0.3-0.7c0-0.6-0.4-1-1-1c-0.3,0-0.7,0.2-0.9,0.5c-0.6,0.6-1.4,1-2.3,1
			c-1.1,0-1.9-0.3-2.5-1c-0.6-0.6-0.8-1.4-0.8-2.3c0-1,0.3-1.7,0.8-2.3C308.1,317.2,308.9,316.9,310,316.9z"/>
		<path fill="#010101" d="M323.5,314.9c-0.7,0-1.1,0.4-1.1,1.1v3h-4.6v-3c0-0.7-0.4-1.1-1.1-1.1c-0.7,0-1.1,0.4-1.1,1.1v8.3
			c0,0.7,0.4,1.1,1.1,1.1c0.7,0,1.1-0.4,1.1-1.1v-3.2h4.6v3.2c0,0.7,0.4,1.1,1.1,1.1s1.1-0.4,1.1-1.1V316
			C324.6,315.3,324.2,314.9,323.5,314.9z"/>
		<path fill="#010101" d="M331.4,314.8c-1.6,0-2.9,0.5-4,1.6c-1,1-1.5,2.3-1.5,3.8c0,1.5,0.5,2.7,1.5,3.8c1,1,2.4,1.6,4,1.6
			s2.9-0.5,4-1.6c1-1,1.5-2.3,1.5-3.8c0-1.5-0.5-2.7-1.5-3.8C334.4,315.3,333,314.8,331.4,314.8z M333.8,322.4c-0.6,0.7-1.4,1-2.4,1
			c-1,0-1.8-0.3-2.4-1c-0.6-0.6-0.8-1.4-0.8-2.3c0-0.9,0.3-1.7,0.8-2.3c0.6-0.7,1.4-1,2.4-1c1,0,1.8,0.3,2.4,1
			c0.6,0.6,0.8,1.4,0.8,2.3C334.7,321.1,334.4,321.8,333.8,322.4z"/>
		<path fill="#010101" d="M343.2,314.8c-1.6,0-2.9,0.5-4,1.6c-1,1-1.5,2.3-1.5,3.8c0,1.5,0.5,2.7,1.5,3.8c1,1,2.4,1.6,4,1.6
			s2.9-0.5,4-1.6c1-1,1.5-2.3,1.5-3.8c0-1.5-0.5-2.7-1.5-3.8C346.1,315.3,344.8,314.8,343.2,314.8z M345.6,322.4
			c-0.6,0.7-1.4,1-2.4,1s-1.8-0.3-2.4-1c-0.6-0.6-0.8-1.4-0.8-2.3c0-0.9,0.3-1.7,0.8-2.3c0.6-0.7,1.4-1,2.4-1s1.8,0.3,2.4,1
			c0.6,0.6,0.8,1.4,0.8,2.3C346.4,321.1,346.2,321.8,345.6,322.4z"/>
		<path fill="#010101" d="M356.7,323.2h-4.4V316c0-0.7-0.4-1.1-1.1-1.1c-0.7,0-1.1,0.4-1.1,1.1v8.2c0,0.7,0.4,1.1,1.1,1.1h5.5
			c0.7,0,1.1-0.4,1.1-1.1C357.7,323.6,357.3,323.2,356.7,323.2z"/>
		<path fill="#010101" d="M261.6,541c0.3,0.6,0.9,0.7,1.5,0.4c0.6-0.3,0.8-0.9,0.4-1.5L262,537l4-2.3l1.6,2.8
			c0.3,0.6,0.9,0.7,1.5,0.4s0.8-0.9,0.4-1.5l-4.2-7.2c-0.3-0.6-0.9-0.7-1.5-0.4c-0.6,0.4-0.8,0.9-0.4,1.5l1.5,2.6l-4,2.3l-1.5-2.6
			c-0.3-0.6-0.9-0.7-1.5-0.4c-0.6,0.4-0.8,0.9-0.4,1.5L261.6,541z"/>
		<path fill="#010101" d="M302.7,533.9c0.5,0,0.8-0.2,1-0.6l0.9-1.9h4.2l0.9,1.8c0.2,0.4,0.5,0.6,1,0.6c0.7,0,1.1-0.4,1.1-1
			c0-0.1,0-0.3-0.1-0.5l-4-8.4c-0.2-0.4-0.5-0.6-1-0.6c-0.5,0-0.8,0.2-1,0.6l-4,8.4c-0.1,0.2-0.1,0.3-0.1,0.4
			C301.6,533.5,302,533.9,302.7,533.9z M306.7,526.8l1.2,2.7h-2.4L306.7,526.8z"/>
		<path fill="#010101" d="M344,535.5c0.6,0.3,1.1,0.2,1.5-0.4l2.7-4.7l1.3,7.8c0.1,0.3,0.2,0.6,0.5,0.7c0.6,0.3,1.2,0.2,1.5-0.4
			l4.2-7.3c0.3-0.6,0.2-1.1-0.4-1.5c-0.6-0.3-1.2-0.2-1.5,0.4l-2.7,4.7l-1.3-7.7c0-0.4-0.2-0.6-0.5-0.8c-0.6-0.3-1.2-0.2-1.5,0.4
			l-4.2,7.3C343.2,534.6,343.4,535.2,344,535.5z"/>
	</g>
	<polygon fill="none" points="-85.3,409.8 -271.3,517.2 -457.4,409.8 -457.4,195 -271.3,87.6 -85.3,195 	"/>
</g>
</svg>
